<?xml version="1.0" encoding="UTF-8"?>
<svg version="1.1" xmlns="http://www.w3.org/2000/svg" width="1024" height="945">
<path d="M0 0 C337.92 0 675.84 0 1024 0 C1024 311.85 1024 623.7 1024 945 C686.08 945 348.16 945 0 945 C0 633.15 0 321.3 0 0 Z " fill="#230E60" transform="translate(0,0)"/>
<path d="M0 0 C10.69307096 6.38325981 17.40148259 14.57794968 21.0078125 26.55859375 C21.0078125 27.87859375 21.0078125 29.19859375 21.0078125 30.55859375 C21.95693008 30.55193192 22.90604767 30.54527008 23.88392639 30.53840637 C32.84384064 30.47749837 41.80371269 30.43257466 50.76378727 30.40315723 C55.36987523 30.38752482 59.97579559 30.36633097 64.58178711 30.33227539 C69.02976051 30.29959528 73.47757304 30.2817225 77.92565727 30.27396202 C79.61966927 30.26843401 81.31367282 30.25763916 83.00761604 30.24140358 C85.38686025 30.21951392 87.76544612 30.21663158 90.14477539 30.21801758 C90.83961533 30.20723175 91.53445526 30.19644592 92.25035095 30.18533325 C98.67471749 30.22562761 103.15711653 31.82859534 107.8828125 36.24609375 C110.79964669 40.79292352 111.63065201 44.34948734 110.59765625 49.671875 C108.94764724 54.91831084 106.52192859 57.48899481 102.0078125 60.55859375 C97.82804513 62.66876646 94.05629025 62.80853509 89.46704102 62.71875 C88.72492371 62.7127327 87.9828064 62.70671539 87.21820068 62.70051575 C85.61292054 62.68736052 84.00766895 62.67024723 82.40246773 62.64959717 C78.98521392 62.61087971 75.56825121 62.60885543 72.15080929 62.60479736 C65.79459832 62.59706916 59.43939246 62.57533721 53.08374023 62.48681641 C48.65534542 62.42655211 44.22912547 62.41502368 39.80039787 62.43551636 C38.11663782 62.4342412 36.43278949 62.41499564 34.74945259 62.37722778 C25.53810802 61.82707658 25.53810802 61.82707658 17.72579956 65.74389648 C16.08912714 68.35528709 16.08912714 68.35528709 15.03721619 71.0871582 C12.29405687 77.67305014 4.27704468 81.81276725 -1.9921875 84.55859375 C-2.9821875 84.55859375 -3.9721875 84.55859375 -4.9921875 84.55859375 C-4.88505605 113.19124484 -4.77231417 141.82386904 -4.65284824 170.45647144 C-4.59751277 183.75035114 -4.54403024 197.04423082 -4.49487305 210.33813477 C-4.45203519 221.92179933 -4.40575819 233.50544411 -4.35530895 245.08907813 C-4.32870482 251.22547929 -4.30385164 257.36187653 -4.28311348 263.49830055 C-4.26355634 269.26920851 -4.23941528 275.04007879 -4.21169662 280.81095314 C-4.20232131 282.93342404 -4.19464776 285.05590322 -4.18876839 287.17838669 C-4.18051541 290.06755918 -4.16624093 292.95664003 -4.15040588 295.84577942 C-4.14942778 296.69304952 -4.14844967 297.54031962 -4.14744192 298.41326457 C-4.1240434 301.71426706 -4.04336542 304.40506 -2.9921875 307.55859375 C4.60634227 312.06549748 13.14899015 313.58601717 21.734375 314.98046875 C25.0078125 315.55859375 25.0078125 315.55859375 27.0078125 316.55859375 C29.63974593 316.66543868 32.24632963 316.71275377 34.87890625 316.71630859 C35.69218887 316.72138931 36.5054715 316.72647003 37.34339905 316.73170471 C39.11401282 316.74242169 40.88464024 316.75103664 42.65527344 316.75782394 C45.46426451 316.76961077 48.27310168 316.78906679 51.08203125 316.8109436 C59.0704225 316.87254045 67.05880103 316.92645608 75.04736328 316.95996094 C79.93220237 316.98100062 84.81676578 317.01638655 89.70144653 317.06071854 C91.55759415 317.0748149 93.4137906 317.08358649 95.26998901 317.08677292 C117.81989608 317.12955116 117.81989608 317.12955116 125.5078125 322.93359375 C128.97593445 326.5751218 129.8227147 328.92356318 130.3828125 333.87109375 C129.91616488 338.45979535 128.67995823 341.79961199 126.0078125 345.55859375 C121.55845721 349.09991735 118.02961118 350.67968665 112.38464928 350.69560814 C110.95233941 350.70321995 110.95233941 350.70321995 109.49109399 350.71098554 C107.91423065 350.71173218 107.91423065 350.71173218 106.30551147 350.7124939 C105.19040495 350.71687615 104.07529842 350.7212584 102.92640078 350.72577345 C99.17017047 350.73918413 95.41396362 350.74534543 91.65771484 350.75146484 C88.97240012 350.75936403 86.28708843 350.76762771 83.60177612 350.77624512 C75.5287647 350.8007673 67.45574713 350.81539647 59.38270992 350.82830518 C57.10225808 350.8320174 54.82180685 350.83599061 52.54135561 350.84005785 C38.37832209 350.86529582 24.2152876 350.88734771 10.05223656 350.899786 C6.77164074 350.90271567 3.49104496 350.90567733 0.21044922 350.90869141 C-0.60492193 350.90943746 -1.42029308 350.91018351 -2.26037244 350.91095217 C-15.46528109 350.92360247 -28.67005498 350.95682113 -41.87490065 350.99849324 C-55.43405878 351.04093244 -68.99314797 351.06448336 -82.55237234 351.06970656 C-90.16455018 351.07311855 -97.77651749 351.08484842 -105.38862991 351.1178093 C-111.87239838 351.14583841 -118.35591315 351.15679673 -124.83973749 351.14561383 C-128.14634017 351.14043421 -131.45230164 351.1460057 -134.7588501 351.16807938 C-138.3490041 351.19074048 -141.93782381 351.18248807 -145.52798462 351.16659546 C-147.08477147 351.18741859 -147.08477147 351.18741859 -148.67300856 351.20866239 C-155.53128358 351.13395471 -160.44402764 349.68323599 -165.9921875 345.55859375 C-169.6287395 341.17230945 -169.61520147 337.0263488 -169.47265625 331.5078125 C-168.71816365 326.87657744 -166.62702591 324.39493219 -162.9921875 321.55859375 C-156.47153032 317.39647214 -149.3539107 317.41168009 -141.81640625 317.40087891 C-141.0299321 317.39579819 -140.24345795 317.39071747 -139.43315125 317.38548279 C-137.73521003 317.37483567 -136.03725529 317.36619363 -134.33929443 317.35936356 C-131.63774575 317.34747163 -128.93634967 317.32799049 -126.23486328 317.3062439 C-118.55685632 317.24499357 -110.87886558 317.19080391 -103.20068359 317.15722656 C-98.49160244 317.13608812 -93.78280201 317.10063313 -89.07388306 317.05646896 C-87.29443705 317.04245748 -85.5149414 317.03362074 -83.73544312 317.03041458 C-69.62103333 317.00230599 -56.73848098 315.74789403 -43.45703125 310.5234375 C-40.67304009 309.433666 -37.8284505 308.50401475 -34.9921875 307.55859375 C-34.9921875 234.29859375 -34.9921875 161.03859375 -34.9921875 85.55859375 C-37.9621875 84.56859375 -37.9621875 84.56859375 -40.9921875 83.55859375 C-48.41332019 79.07817159 -55.76315457 72.72614763 -58.9921875 64.55859375 C-58.9921875 63.89859375 -58.9921875 63.23859375 -58.9921875 62.55859375 C-59.713333 62.56135913 -60.43447849 62.56412451 -61.17747688 62.56697369 C-78.72951797 62.63324446 -96.28152725 62.68287965 -113.83366585 62.71403027 C-122.32177348 62.72949511 -130.80979756 62.7505773 -139.29785156 62.78491211 C-146.69657156 62.8148262 -154.09523106 62.83417154 -161.49400985 62.84085923 C-165.41114345 62.8447681 -169.32810395 62.85394642 -173.24518204 62.87578392 C-176.93383165 62.89618089 -180.62223723 62.90242112 -184.31093788 62.89791679 C-186.30653117 62.89913267 -188.30209803 62.915258 -190.29762268 62.93185425 C-191.49226639 62.92773026 -192.6869101 62.92360626 -193.91775513 62.9193573 C-194.95200686 62.92212268 -195.98625858 62.92488806 -197.05185127 62.92773724 C-201.82468749 62.32853318 -205.05812701 60.56838887 -208.3046875 57.05859375 C-211.60141404 52.17455444 -211.59966033 47.2688384 -210.9921875 41.55859375 C-209.50890974 36.8228274 -206.66025091 33.73190856 -202.29109001 31.36975861 C-197.24438507 29.58903512 -191.81530242 30.04441237 -186.52954102 30.10449219 C-185.16892022 30.10562181 -183.80829699 30.10498456 -182.44767761 30.10272217 C-178.77030747 30.10157855 -175.09346348 30.12502991 -171.41621518 30.153018 C-167.56721267 30.17809096 -163.71819695 30.18037828 -159.86912537 30.18511963 C-152.58771979 30.19753217 -145.30655558 30.23033024 -138.0252561 30.27051759 C-129.73266176 30.31528911 -121.44005565 30.33723583 -113.14737046 30.35729933 C-96.09550339 30.39906457 -79.043871 30.46938286 -61.9921875 30.55859375 C-61.78746826 29.17208618 -61.78746826 29.17208618 -61.57861328 27.75756836 C-59.9586398 18.92055233 -54.14413177 9.98215149 -46.9921875 4.55859375 C-41.35477415 0.78650099 -35.46372608 -1.51813776 -28.9921875 -3.44140625 C-19.78854624 -6.50928667 -8.52218281 -4.1053335 0 0 Z " fill="#FCFCFD" transform="translate(531.9921875,235.44140625)"/>
<path d="M0 0 C4.40713331 3.65162475 6.89539008 7.93676942 9.3125 13.0625 C11.97787812 18.58111457 14.91187803 23.86932715 18.0625 29.125 C21.45724315 34.78953644 24.65495271 40.50876098 27.6875 46.375 C30.54111597 51.87706183 33.58514494 57.16252933 36.9375 62.375 C41.72792989 69.84105566 45.91147058 77.58273025 50.08886719 85.40454102 C53.96736272 92.63690739 58.01896465 99.74388732 62.1875 106.8125 C63.92850332 109.79343858 65.66631721 112.77621032 67.40283203 115.75976562 C68.62266078 117.84632358 69.85058629 119.92816358 71.08544922 122.00585938 C72.96119128 125.17539848 74.79624049 128.36567614 76.625 131.5625 C77.48641602 132.98949219 77.48641602 132.98949219 78.36523438 134.4453125 C83.01251809 142.7097224 82.65044999 149.16969288 80.3125 158.1875 C73.90856595 173.13001277 63.59734373 184.00846886 50.1875 192.8125 C49.46304688 193.328125 48.73859375 193.84375 47.9921875 194.375 C26.54793697 208.72097945 -5.9942834 211.09692329 -30.66992188 206.2890625 C-55.51144439 200.84826794 -76.93554047 189.64537769 -91 167.90234375 C-95.84758198 159.63847015 -98.1565359 152.48203245 -96.8125 142.8125 C-95.05711433 138.10378932 -92.64290819 133.83325807 -90.125 129.5 C-89.43468529 128.26907862 -88.74665059 127.03687608 -88.06079102 125.8034668 C-86.32998469 122.70403846 -84.57114831 119.6216342 -82.80310059 116.54333496 C-81.32321551 113.95759369 -79.86886891 111.35772592 -78.4140625 108.7578125 C-76.3134752 105.01140091 -74.19862281 101.27369874 -72.0703125 97.54296875 C-68.54812934 91.36360602 -65.08837367 85.149947 -61.625 78.9375 C-57.35181461 71.28110887 -53.00512746 63.68144119 -48.51025391 56.15332031 C-44.47305548 49.34210617 -40.72625219 42.37421043 -37.00927734 35.3840332 C-34.57559459 30.85079189 -32.04266018 26.64194795 -28.97583008 22.51513672 C-26.4501784 18.81862155 -24.7169426 14.65447884 -22.8515625 10.59765625 C-20.75540417 6.21249302 -18.58495006 3.01666431 -14.8125 -0.1875 C-9.85912639 -1.83862454 -4.8485638 -2.04717138 0 0 Z " fill="#FDFDFD" transform="translate(671.8125,308.1875)"/>
<path d="M0 0 C6.52636032 5.82080786 10.12113819 14.30123457 14.1328125 21.9375 C20.73448608 34.48366699 27.84048505 46.74351225 35.00292969 58.9753418 C40.28594226 67.99965672 45.4817283 77.07131831 50.65527344 86.15869141 C52.49597139 89.38398037 54.34513727 92.60436248 56.1953125 95.82421875 C63.15578565 107.94646955 70.04961139 120.09458553 76.68359375 132.40014648 C77.13605469 133.23876221 77.58851563 134.07737793 78.0546875 134.94140625 C78.4451123 135.6691626 78.83553711 136.39691895 79.23779297 137.14672852 C80.18338172 138.83233391 81.24042026 140.4543804 82.3125 142.0625 C83.52781534 155.43096876 78.0541854 166.04587514 69.796875 176.13671875 C53.83960738 194.63580077 31.06088803 205.16875756 6.875 207.75 C-10.68466149 208.96450108 -27.97738679 207.7982368 -44.6875 202.0625 C-45.87601562 201.67578125 -47.06453125 201.2890625 -48.2890625 200.890625 C-64.09537299 195.23362967 -79.32623071 184.72673069 -88.375 170.375 C-88.7558374 169.77486084 -89.1366748 169.17472168 -89.52905273 168.55639648 C-94.09348071 161.10348774 -97.71515894 152.93611155 -96.6875 144.0625 C-95.06339106 140.02780266 -93.01726353 136.25327174 -90.9375 132.4375 C-90.05276001 130.77642212 -90.05276001 130.77642212 -89.15014648 129.08178711 C-85.00120872 121.34253977 -80.69258538 113.69805058 -76.28686523 106.10253906 C-72.20330874 99.04480452 -68.33767318 91.88140124 -64.5 84.6875 C-60.17031931 76.58477008 -55.7281212 68.61034628 -50.9375 60.7734375 C-44.54259339 50.29289611 -38.53201643 39.57360443 -32.76171875 28.73828125 C-32.42831482 28.11252701 -32.09491089 27.48677277 -31.75140381 26.84205627 C-30.10909639 23.75516523 -28.4748035 20.66432952 -26.85107422 17.56762695 C-18.85840394 2.44946641 -18.85840394 2.44946641 -14.4375 -0.375 C-9.48496196 -1.38801914 -4.81886944 -1.68100097 0 0 Z " fill="#FDFDFD" transform="translate(366.6875,307.9375)"/>
<path d="M0 0 C12.74979267 -0.61199005 21.856669 0.64336032 31.8984375 9.03515625 C41.05475921 17.59580647 45.06011916 27.31711139 45.5 39.875 C44.91911318 57.8624609 36.92496835 74.69335105 24 87.125 C2.62134838 105.05074225 -26.03951873 111.17594089 -53 114 C-53.79889648 114.09571289 -54.59779297 114.19142578 -55.42089844 114.29003906 C-65.03848687 115.33943569 -74.71224154 115.24017792 -84.375 115.25 C-85.33465668 115.25200409 -86.29431335 115.25400818 -87.28305054 115.256073 C-104.64844237 115.26488107 -121.78553586 114.20466214 -139.06282043 112.55593872 C-153.02030272 111.23030518 -166.84414015 110.78545781 -180.8581543 110.75976562 C-184.03265916 110.75009094 -187.20650619 110.7189755 -190.38085938 110.6875 C-217.85998479 110.54518877 -247.11224468 113.45748071 -268.94140625 131.953125 C-271.96810354 134.96259252 -274.16014695 138.15930675 -276 142 C-276.36480469 142.75023437 -276.72960937 143.50046875 -277.10546875 144.2734375 C-278.24537911 147.74792411 -278.30146384 150.7845315 -278.3125 154.4375 C-278.32925781 155.71496094 -278.34601563 156.99242187 -278.36328125 158.30859375 C-277.87476993 163.27249915 -276.34810585 166.57019076 -272.9375 170.1875 C-262.66019825 176.52881384 -248.95840076 176.722092 -237.25024414 178.29956055 C-205.78736384 182.57151604 -205.78736384 182.57151604 -193.5 188.3125 C-192.51604248 188.7602478 -192.51604248 188.7602478 -191.51220703 189.21704102 C-182.1194763 193.65075392 -173.94011985 199.92754676 -169.86328125 209.734375 C-166.72580614 221.60283288 -168.86473756 233.14629202 -174.47265625 243.796875 C-182.45934314 257.46675988 -194.86637164 265.52424667 -209.82666016 269.90429688 C-222.70888539 273.25766754 -237.95813877 273.73279205 -251 271 C-248.63680916 268.63680916 -246.82906084 268.487997 -243.66015625 267.74609375 C-230.03488642 263.92461572 -213.39359711 257.43372289 -205.7265625 244.921875 C-201.53771392 236.9006756 -201.1909483 228.92779143 -202 220 C-203.08900578 216.67700574 -204.57496658 214.49670928 -207 212 C-207.52335937 211.46117187 -208.04671875 210.92234375 -208.5859375 210.3671875 C-220.97661806 199.5997402 -240.56745119 199.16126111 -256 197 C-280.86437808 193.45310586 -305.03927865 189.91758719 -321.55078125 169.0390625 C-329.25732086 157.89981645 -329.1256188 144.02160428 -328 131 C-327.20039457 126.65452526 -325.90382466 122.97662784 -324 119 C-323.50242187 117.92492187 -323.00484375 116.84984375 -322.4921875 115.7421875 C-312.34678482 95.40419422 -293.88091556 84.37154826 -272.99609375 77.23828125 C-263.08087996 74.03169922 -253.40107154 71.87643547 -243 71 C-242.11924805 70.91532471 -241.23849609 70.83064941 -240.33105469 70.7434082 C-230.59390042 69.87868618 -220.89236472 69.79896442 -211.125 69.8125 C-210.24573853 69.81343658 -209.36647705 69.81437317 -208.46057129 69.81533813 C-182.39675322 69.87501505 -156.78447366 72.15991686 -130.91748047 75.17138672 C-57.03740069 84.36282978 -57.03740069 84.36282978 11.1875 60.5625 C16.81029486 55.80055939 22.36697196 48.5895179 23.21948242 41.06201172 C23.69354055 32.22286499 24.09443028 23.60221484 19 16 C18.55269531 15.29617188 18.10539062 14.59234375 17.64453125 13.8671875 C13.07833792 7.23212909 7.84429207 3.10456616 0 1 C0 0.67 0 0.34 0 0 Z " fill="#FDFCFD" transform="translate(682,563)"/>
<path d="M0 0 C2.94713544 2.53732666 4.24156874 5.31289468 5.875 8.8125 C10.45641488 18.31890394 15.97902766 27.27832603 21.3984375 36.32275391 C23.72074486 40.2048305 26.01960249 44.10049914 28.3125 48 C28.71976318 48.69230713 29.12702637 49.38461426 29.54663086 50.09790039 C33.02774189 56.02634655 36.44529021 61.99003898 39.84277344 67.96679688 C41.70058824 71.23090694 43.56511332 74.4911773 45.42919922 77.75170898 C46.47058951 79.57373735 47.51128763 81.39616152 48.55126953 83.21899414 C50.87022198 87.28253746 53.19425037 91.34256075 55.546875 95.38671875 C55.92328125 96.03640625 56.2996875 96.68609375 56.6875 97.35546875 C57.67927665 99.06555422 58.67540995 100.77311095 59.671875 102.48046875 C61 105 61 105 61 107 C21.07 107 -18.86 107 -60 107 C-58.74582957 103.86457393 -57.66101557 101.21893028 -56.0390625 98.34765625 C-55.4653894 97.32478516 -55.4653894 97.32478516 -54.88012695 96.28125 C-54.46593506 95.5490625 -54.05174316 94.816875 -53.625 94.0625 C-50.29543514 88.1302857 -47.00445756 82.18070778 -43.77050781 76.19580078 C-34.36961946 58.81391713 -24.42137939 41.7446013 -14.37036133 24.73217773 C-11.08758863 19.17088102 -7.87889685 13.56949674 -4.69140625 7.953125 C-3.16076798 5.28069422 -1.59520119 2.63427719 0 0 Z " fill="#28126E" transform="translate(664,344)"/>
<path d="M0 0 C2.72968216 2.40339362 4.03218481 4.84510057 5.5625 8.125 C10.38980293 18.01681977 16.17841684 27.36180993 21.890625 36.76171875 C27.67792916 46.30361991 33.19702722 55.93439141 38.48632812 65.76147461 C44.18192279 76.28768748 50.40049052 86.48937409 56.64941406 96.69335938 C57.19049805 97.58345703 57.73158203 98.47355469 58.2890625 99.390625 C58.7835791 100.20047852 59.2780957 101.01033203 59.78759766 101.84472656 C61 104 61 104 62 107 C21.74 107 -18.52 107 -60 107 C-58.54076171 103.35190428 -57.1078124 100.23609784 -55.19921875 96.8515625 C-54.64089355 95.85801758 -54.08256836 94.86447266 -53.50732422 93.84082031 C-52.90678223 92.77959961 -52.30624023 91.71837891 -51.6875 90.625 C-51.06375488 89.51737305 -50.44000977 88.40974609 -49.79736328 87.26855469 C-47.86784509 83.84403743 -45.93407751 80.42194385 -44 77 C-42.86825406 74.99232025 -41.73673249 72.98451399 -40.60546875 70.9765625 C-29.60276962 51.46193599 -18.45537098 32.03156753 -7.25 12.6328125 C-4.82199822 8.42825794 -2.40369877 4.21849134 0 0 Z " fill="#280E63" transform="translate(359,344)"/>
<path d="M0 0 C2.77399834 1.98142739 3.33408172 3.75156514 4 7 C4.17329615 8.58815242 4.31424168 10.18003488 4.4296875 11.7734375 C4.50316406 12.6809375 4.57664062 13.5884375 4.65234375 14.5234375 C4.80012864 16.41612123 4.94081909 18.30937301 5.07421875 20.203125 C5.6773403 27.54325473 5.6773403 27.54325473 9 34 C11.97052649 36.45715743 15.13455224 38.54255009 18.375 40.625 C20.071411 41.74051875 21.76675453 42.85766284 23.4609375 43.9765625 C24.25081055 44.49508789 25.04068359 45.01361328 25.85449219 45.54785156 C28.34897448 47.23619711 30.6980459 49.05802226 33 51 C32.74829102 52.85205078 32.74829102 52.85205078 32 55 C30.26928711 56.27685547 30.26928711 56.27685547 28.02734375 57.3671875 C27.20943359 57.77839844 26.39152344 58.18960938 25.54882812 58.61328125 C24.68708984 59.02964844 23.82535156 59.44601563 22.9375 59.875 C11.05196637 65.11308271 11.05196637 65.11308271 3.25 74.75 C2.3928954 77.95315373 1.74238041 81.19999924 1.046875 84.44140625 C0.87381836 85.24030273 0.70076172 86.03919922 0.52246094 86.86230469 C0.17891804 88.47342457 -0.1515618 90.08739528 -0.46777344 91.70410156 C-1.31274906 95.81303708 -2.02914228 98.8519036 -5 102 C-13.77309672 99.53256655 -19.81365587 91.12050316 -25.41015625 84.453125 C-32.36684633 77.863681 -39.5744474 78.65190238 -48.6875 78.875 C-51.10799934 78.9183827 -53.52857738 78.9576259 -55.94921875 78.9921875 C-57.01487061 79.01651855 -58.08052246 79.04084961 -59.1784668 79.06591797 C-61.65679736 79.00801806 -63.64445172 78.72691163 -66 78 C-65.5513675 71.97887965 -63.64478085 67.94963476 -60.5625 62.8125 C-59.75067291 61.42354464 -58.93945531 60.03423282 -58.12890625 58.64453125 C-57.58858765 57.73731323 -57.58858765 57.73731323 -57.03735352 56.81176758 C-53.91114277 51.35175112 -53.17666121 47.31113463 -54 41 C-55.20304045 37.41186585 -56.83311705 34.11111871 -58.5625 30.75 C-63.02775961 21.99046275 -63.02775961 21.99046275 -62.90234375 17.515625 C-62 15 -62 15 -60 13 C-54.60462116 12.5648888 -50.27889721 13.07979379 -45.0625 14.5 C-37.49817188 16.50882411 -30.48269943 17.63762272 -23.3515625 13.6171875 C-18.71735885 10.43021024 -14.3448445 6.90211974 -9.9765625 3.36328125 C-6.32781105 0.46630667 -4.63362436 -0.45206091 0 0 Z " fill="#FDFDFD" transform="translate(728,184)"/>
<path d="M0 0 C0.33 0.66 0.66 1.32 1 2 C-3.95 10.91 -3.95 10.91 -9 20 C30.27 20 69.54 20 110 20 C110 20.66 110 21.32 110 22 C69.74 22 29.48 22 -12 22 C-10.63988088 18.59970219 -9.44790784 15.86764009 -7.6171875 12.79296875 C-6.95009766 11.66665039 -6.95009766 11.66665039 -6.26953125 10.51757812 C-5.80933594 9.74865234 -5.34914063 8.97972656 -4.875 8.1875 C-4.40707031 7.39923828 -3.93914062 6.61097656 -3.45703125 5.79882812 C-2.30784603 3.86397546 -1.15542997 1.93112772 0 0 Z " fill="#261C59" transform="translate(311,429)"/>
<path d="M0 0 C0.33 0.66 0.66 1.32 1 2 C0.67 2.66 0.34 3.32 0 4 C38.61 3.67 77.22 3.34 117 3 C117.495 4.485 117.495 4.485 118 6 C78.07 6 38.14 6 -3 6 C-1 1 -1 1 0 0 Z " fill="#271C66" transform="translate(607,445)"/>
<path d="M0 0 C1.8125 2.625 1.8125 2.625 3 5 C2.01 5.33 1.02 5.66 0 6 C-0.66 4.68 -1.32 3.36 -2 2 C-2.98742187 2 -3.97484375 2 -4.9921875 2 C-9.328125 2 -13.6640625 2 -18 2 C-18.90105469 2.18175781 -19.80210937 2.36351562 -20.73046875 2.55078125 C-24.19594493 3.02692194 -26.87615498 2.78233432 -30.3125 2.1875 C-31.88451172 1.93033203 -31.88451172 1.93033203 -33.48828125 1.66796875 C-34.31714844 1.44753906 -35.14601563 1.22710937 -36 1 C-36.33 0.34 -36.66 -0.32 -37 -1 C-35.91460938 -0.98839844 -34.82921875 -0.97679687 -33.7109375 -0.96484375 C-32.26562673 -0.95545862 -30.82031409 -0.94635919 -29.375 -0.9375 C-28.30572266 -0.92493164 -28.30572266 -0.92493164 -27.21484375 -0.91210938 C-1.24612211 -0.7929868 -1.24612211 -0.7929868 0 0 Z " fill="#291C71" transform="translate(698,264)"/>
<path d="M0 0 C4.875 3.625 4.875 3.625 6 7 C6.66 7.33 7.32 7.66 8 8 C8.6328125 9.84765625 8.6328125 9.84765625 9.125 12.0625 C9.29257812 12.79597656 9.46015625 13.52945312 9.6328125 14.28515625 C9.75398437 14.85105469 9.87515625 15.41695313 10 16 C6.00231177 14.71502878 4.97282121 12.30559301 3.046875 8.75 C1.39688913 5.99181466 -0.21708705 4.60790526 -3 3 C-5.9954503 2.40494422 -8.95133248 2.13283954 -12 2 C-12 1.67 -12 1.34 -12 1 C-11.21753906 1.01160156 -10.43507813 1.02320313 -9.62890625 1.03515625 C-8.61699219 1.04417969 -7.60507812 1.05320312 -6.5625 1.0625 C-5.04849609 1.07990234 -5.04849609 1.07990234 -3.50390625 1.09765625 C-1.05978933 1.28612676 -1.05978933 1.28612676 0 0 Z " fill="#211263" transform="translate(672,304)"/>
<path d="M0 0 C9.76041066 -0.32001346 19.32032595 0.88693687 29 2 C29 2.33 29 2.66 29 3 C10.17995444 4.33257403 10.17995444 4.33257403 1 3 C0.67 2.01 0.34 1.02 0 0 Z " fill="#2B1969" transform="translate(556,637)"/>
<path d="M0 0 C0.33 0.66 0.66 1.32 1 2 C1.99 2.33 2.98 2.66 4 3 C5.51064219 6.39894493 4.86207025 9.47334899 4 13 C3.01 13.495 3.01 13.495 2 14 C1.34 14.99 0.68 15.98 0 17 C-0.19436491 14.54203147 -0.3807742 12.08390706 -0.5625 9.625 C-0.61857422 8.92632812 -0.67464844 8.22765625 -0.73242188 7.5078125 C-1.11328125 2.2265625 -1.11328125 2.2265625 0 0 Z " fill="#352377" transform="translate(732,187)"/>
<path d="M0 0 C-1 2 -1 2 -3.3125 3.1875 C-6.92603511 5.62453531 -8.034008 8.14083051 -10 12 C-11.125 10.3125 -11.125 10.3125 -12 8 C-10.06459282 0.7862096 -7.25117583 -0.41044391 0 0 Z " fill="#25186F" transform="translate(743,251)"/>
<path d="M0 0 C0 4.44437686 -2.35900464 7.81141058 -4.42382812 11.64257812 C-6.40487637 15.43720456 -7.53713823 18.74297557 -8 23 C-8.66 23 -9.32 23 -10 23 C-11.125 18.25 -11.125 18.25 -10 16 C-9.34 16 -8.68 16 -8 16 C-7.87625 15.278125 -7.7525 14.55625 -7.625 13.8125 C-7.0095069 11.04278106 -6.11555626 8.6029646 -5 6 C-4.34 6 -3.68 6 -3 6 C-2.690625 5.195625 -2.38125 4.39125 -2.0625 3.5625 C-1 1 -1 1 0 0 Z " fill="#27157B" transform="translate(669,240)"/>
<path d="M0 0 C0.33 0.66 0.66 1.32 1 2 C2.65 1.67 4.3 1.34 6 1 C6 1.66 6 2.32 6 3 C7.32 3.33 8.64 3.66 10 4 C9.67 4.66 9.34 5.32 9 6 C2.07 5.505 2.07 5.505 -5 5 C-4 2 -4 2 -1.9375 0.8125 C-1.298125 0.544375 -0.65875 0.27625 0 0 Z " fill="#241268" transform="translate(671,192)"/>
<path d="M0 0 C0 3 0 3 -1 5 C-1.99 5.33 -2.98 5.66 -4 6 C-5.20882096 8.00016466 -5.20882096 8.00016466 -6 10 C-6.721875 9.814375 -7.44375 9.62875 -8.1875 9.4375 C-11.12826973 8.98004693 -13.14103058 9.26483643 -16 10 C-14.4019435 6.803887 -11.10689384 5.92061369 -8 4.4375 C-3.71419741 2.62703116 -3.71419741 2.62703116 0 0 Z " fill="#140A45" transform="translate(493,822)"/>
<path d="M0 0 C0.33 0 0.66 0 1 0 C1.04898438 0.98742187 1.09796875 1.97484375 1.1484375 2.9921875 C1.22320313 4.27351562 1.29796875 5.55484375 1.375 6.875 C1.44460938 8.15117187 1.51421875 9.42734375 1.5859375 10.7421875 C1.67241106 14.08061699 1.67241106 14.08061699 4 16 C3.67 16.99 3.34 17.98 3 19 C3.38932856 21.14255793 3.38932856 21.14255793 4 23 C-1 18 -1 18 -1.23046875 15.64453125 C-1.14991255 10.33514524 -0.93006067 5.23159127 0 0 Z " fill="#271673" transform="translate(734,194)"/>
<path d="M0 0 C6.91428571 0.94285714 6.91428571 0.94285714 10 3 C10.33 3.99 10.66 4.98 11 6 C12.62652316 7.70586575 14.29006566 9.3777546 16 11 C12.61708124 9.3929127 9.47991249 7.49601962 6.3125 5.5 C5.33925781 4.8915625 4.36601563 4.283125 3.36328125 3.65625 C1 2 1 2 0 0 Z " fill="#2D177B" transform="translate(747,223)"/>
<path d="M0 0 C9.47604492 -0.42324766 17.39840919 -0.63162582 26 4 C22.80429821 5.59785089 19.38635924 4.77115111 16 4 C15.01 3.34 14.02 2.68 13 2 C9.80193335 1.5396236 9.80193335 1.5396236 6.3125 1.375 C4.54326172 1.26285156 4.54326172 1.26285156 2.73828125 1.1484375 C1.83464844 1.09945312 0.93101562 1.05046875 0 1 C0 0.67 0 0.34 0 0 Z " fill="#331977" transform="translate(506,229)"/>
<path d="M0 0 C0.391875 0.474375 0.78375 0.94875 1.1875 1.4375 C5.00445249 4.72797628 11.14525804 4.42401367 16 5 C16 5.33 16 5.66 16 6 C9.17864049 6.22365113 2.61225361 5.83108562 -4 4 C-4.66 3.34 -5.32 2.68 -6 2 C-4.02 1.34 -2.04 0.68 0 0 Z " fill="#271072" transform="translate(551,545)"/>
<path d="M0 0 C0.99 0 1.98 0 3 0 C3.66 2.31 4.32 4.62 5 7 C4.401875 7.061875 3.80375 7.12375 3.1875 7.1875 C0.12856542 8.3236757 -0.55041099 10.17330142 -2 13 C-2.66 12.34 -3.32 11.68 -4 11 C-2.95833333 9.30729167 -1.91666667 7.61458333 -0.875 5.921875 C0.27624023 3.74520615 0.27624023 3.74520615 0 0 Z " fill="#27157C" transform="translate(662,346)"/>
<path d="M0 0 C1.6704469 3.00680442 2.76478484 5.5501777 3 9 C2.19895541 11.75744196 1.15391269 14.37272986 0 17 C-0.33 17 -0.66 17 -1 17 C-1.02709444 14.91673869 -1.04643873 12.83337559 -1.0625 10.75 C-1.07410156 9.58984375 -1.08570313 8.4296875 -1.09765625 7.234375 C-1.01782092 4.59022872 -0.78643778 2.50173909 0 0 Z " fill="#372380" transform="translate(730,260)"/>
<path d="M0 0 C-0.33 0.99 -0.66 1.98 -1 3 C-2.0828125 3.1546875 -2.0828125 3.1546875 -3.1875 3.3125 C-6.24491993 4.05986932 -8.38329635 5.28045189 -11 7 C-11.66 6.34 -12.32 5.68 -13 5 C-13 4.34 -13 3.68 -13 3 C-8.44573816 0.33409063 -5.26053037 -0.31563182 0 0 Z " fill="#2B1B74" transform="translate(761,241)"/>
<path d="M0 0 C4.29 0.33 8.58 0.66 13 1 C12.01 1.66 11.02 2.32 10 3 C10.33 3.66 10.66 4.32 11 5 C10.01 5.33 9.02 5.66 8 6 C8 5.34 8 4.68 8 4 C5.69 3.67 3.38 3.34 1 3 C0.67 2.01 0.34 1.02 0 0 Z " fill="#0F0744" transform="translate(430,834)"/>
<path d="M0 0 C2.475 0.99 2.475 0.99 5 2 C4.06725891 3.12894876 3.12859878 4.25300876 2.1875 5.375 C1.66542969 6.00148438 1.14335937 6.62796875 0.60546875 7.2734375 C-1 9 -1 9 -4 11 C-3.505 10.1028125 -3.505 10.1028125 -3 9.1875 C-1.79212012 6.94613529 -1.79212012 6.94613529 -2 4 C-1 1.8125 -1 1.8125 0 0 Z " fill="#13064B" transform="translate(370,656)"/>
<path d="M0 0 C2.29633824 3.44450737 2.54016485 5.93812283 3 10 C1.68 10.33 0.36 10.66 -1 11 C-2.1875 8.3125 -2.1875 8.3125 -3 5 C-1.625 2.125 -1.625 2.125 0 0 Z " fill="#2A136E" transform="translate(360,345)"/>
<path d="M0 0 C6.6 0.33 13.2 0.66 20 1 C19.67 1.66 19.34 2.32 19 3 C14.6557587 4.10037152 11.0759348 3.94714189 6.6875 3.1875 C5.63949219 3.01605469 4.59148438 2.84460938 3.51171875 2.66796875 C2.68285156 2.44753906 1.85398437 2.22710937 1 2 C0.67 1.34 0.34 0.68 0 0 Z " fill="#24127A" transform="translate(661,263)"/>
<path d="M0 0 C1.16144531 0.00902344 2.32289063 0.01804687 3.51953125 0.02734375 C4.39996094 0.03894531 5.28039062 0.05054688 6.1875 0.0625 C5.8575 1.0525 5.5275 2.0425 5.1875 3.0625 C-0.59009884 3.18286664 -6.09209989 2.8945582 -11.8125 2.0625 C-11.8125 1.7325 -11.8125 1.4025 -11.8125 1.0625 C-7.81454108 0.10630267 -4.10446078 -0.0414592 0 0 Z " fill="#352373" transform="translate(446.8125,630.9375)"/>
<path d="M0 0 C0.33 1.32 0.66 2.64 1 4 C1.99 4 2.98 4 4 4 C3.67 5.98 3.34 7.96 3 10 C3.66 10 4.32 10 5 10 C4.67 10.99 4.34 11.98 4 13 C0.90407165 9.4912812 -0.74194623 6.50802601 -2 2 C-1.34 1.34 -0.68 0.68 0 0 Z " fill="#291276" transform="translate(732,403)"/>
<path d="M0 0 C2.64 0.33 5.28 0.66 8 1 C8 1.33 8 1.66 8 2 C10.97 2.33 13.94 2.66 17 3 C17 3.33 17 3.66 17 4 C14.9377952 4.054348 12.87517184 4.09294961 10.8125 4.125 C9.66394531 4.14820313 8.51539063 4.17140625 7.33203125 4.1953125 C4.08259628 4.00484152 1.91339479 3.39360127 -1 2 C-0.67 1.34 -0.34 0.68 0 0 Z " fill="#26156B" transform="translate(644,514)"/>
<path d="M0 0 C-4.22949995 2.41685712 -7.12335991 3.34833144 -12 3 C-12.33 2.34 -12.66 1.68 -13 1 C-11.59054634 0.43983252 -10.1719969 -0.09748502 -8.75 -0.625 C-7.96109375 -0.92664063 -7.1721875 -1.22828125 -6.359375 -1.5390625 C-3.50082285 -2.09752136 -2.41040161 -1.53690745 0 0 Z " fill="#271A68" transform="translate(713,509)"/>
<path d="M0 0 C0.99 0.66 1.98 1.32 3 2 C-0.3 4.64 -3.6 7.28 -7 10 C-7.33 9.34 -7.66 8.68 -8 8 C-7.34 7.67 -6.68 7.34 -6 7 C-5.525625 6.01 -5.05125 5.02 -4.5625 4 C-3 1 -3 1 0 0 Z " fill="#28126C" transform="translate(549,306)"/>
<path d="M0 0 C0.66 0.66 1.32 1.32 2 2 C1.030625 2.268125 0.06125 2.53625 -0.9375 2.8125 C-1.948125 3.204375 -2.95875 3.59625 -4 4 C-4.33 4.99 -4.66 5.98 -5 7 C-7.4375 8.75 -7.4375 8.75 -10 10 C-10.66 9.67 -11.32 9.34 -12 9 C-4.88610478 1.33257403 -4.88610478 1.33257403 0 0 Z " fill="#130646" transform="translate(507,812)"/>
<path d="M0 0 C0.66 0 1.32 0 2 0 C4.55214724 9.25153374 4.55214724 9.25153374 4 14 C3.01 14.99 2.02 15.98 1 17 C0.67 14.03 0.34 11.06 0 8 C0.33 8 0.66 8 1 8 C0.67 5.36 0.34 2.72 0 0 Z " fill="#2B1874" transform="translate(753,447)"/>
<path d="M0 0 C0.33 0.99 0.66 1.98 1 3 C3.50447516 4.21869929 3.50447516 4.21869929 6 5 C3.94432065 8.08351902 1.64752004 10.42215154 -1 13 C-0.67 8.71 -0.34 4.42 0 0 Z " fill="#2B166E" transform="translate(576,434)"/>
<path d="M0 0 C1.65 1.32 3.3 2.64 5 4 C4.67 4.99 4.34 5.98 4 7 C3.5875 6.525625 3.175 6.05125 2.75 5.5625 C-0.24002604 2.89283389 -3.86721571 2.83719838 -7.75 2.4375 C-8.54921875 2.35371094 -9.3484375 2.26992188 -10.171875 2.18359375 C-10.77515625 2.12300781 -11.3784375 2.06242187 -12 2 C-12 1.67 -12 1.34 -12 1 C-11.21753906 1.01160156 -10.43507813 1.02320313 -9.62890625 1.03515625 C-8.61699219 1.04417969 -7.60507812 1.05320312 -6.5625 1.0625 C-5.04849609 1.07990234 -5.04849609 1.07990234 -3.50390625 1.09765625 C-1.05978933 1.28612676 -1.05978933 1.28612676 0 0 Z " fill="#2D1777" transform="translate(672,304)"/>
<path d="M0 0 C-0.33 0.66 -0.66 1.32 -1 2 C-4.01490557 3.00496852 -6.04181692 3.10335303 -9.1875 3.0625 C-10.53908203 3.04896484 -10.53908203 3.04896484 -11.91796875 3.03515625 C-12.60503906 3.02355469 -13.29210937 3.01195312 -14 3 C-11.73560813 0.73560813 -10.62863112 0.48211484 -7.5625 -0.1875 C-6.78003906 -0.36667969 -5.99757813 -0.54585937 -5.19140625 -0.73046875 C-3 -1 -3 -1 0 0 Z " fill="#24156E" transform="translate(703,198)"/>
<path d="M0 0 C4.95 0 9.9 0 15 0 C13.02 0.99 13.02 0.99 11 2 C10.01 2.66 9.02 3.32 8 4 C5.95703125 3.5390625 5.95703125 3.5390625 3.8125 2.625 C3.09707031 2.32851563 2.38164063 2.03203125 1.64453125 1.7265625 C1.10183594 1.48679687 0.55914063 1.24703125 0 1 C0 0.67 0 0.34 0 0 Z " fill="#F1EEF2" transform="translate(682,563)"/>
<path d="M0 0 C8.28915663 2.07228916 8.28915663 2.07228916 11 5 C11.25 7.6875 11.25 7.6875 11 10 C10.38125 9.34 9.7625 8.68 9.125 8 C7.24362573 5.7715451 7.24362573 5.7715451 5 6 C3.2856382 4.04072937 1.61594832 2.04119788 0 0 Z " fill="#261175" transform="translate(485,317)"/>
<path d="M0 0 C0.33 0.66 0.66 1.32 1 2 C1.66 2.33 2.32 2.66 3 3 C1.39805929 3.98280415 -0.20663742 4.96111717 -1.8125 5.9375 C-3.15248047 6.75541016 -3.15248047 6.75541016 -4.51953125 7.58984375 C-7 9 -7 9 -10 10 C-10 9.34 -10 8.68 -10 8 C-9.44570313 7.75765625 -8.89140625 7.5153125 -8.3203125 7.265625 C-7.59585937 6.93046875 -6.87140625 6.5953125 -6.125 6.25 C-5.40570313 5.92515625 -4.68640625 5.6003125 -3.9453125 5.265625 C-1.6629326 3.78070314 -0.99624102 2.49584592 0 0 Z " fill="#0E073A" transform="translate(463,816)"/>
<path d="M0 0 C0 3 0 3 -1.390625 4.640625 C-2.00421875 5.17171875 -2.6178125 5.7028125 -3.25 6.25 C-4.15492188 7.06210937 -4.15492188 7.06210937 -5.078125 7.890625 C-7 9 -7 9 -9.234375 8.671875 C-9.81703125 8.45015625 -10.3996875 8.2284375 -11 8 C-11 7.34 -11 6.68 -11 6 C-9.9275 5.7525 -8.855 5.505 -7.75 5.25 C-4.00350563 4.00116854 -2.47926118 2.97511342 0 0 Z " fill="#160B50" transform="translate(698,617)"/>
<path d="M0 0 C4.29 0 8.58 0 13 0 C10.63546807 2.36453193 9.74130071 2.36652704 6.5 2.6875 C5.7059375 2.77386719 4.911875 2.86023438 4.09375 2.94921875 C2 3 2 3 0 2 C0 1.34 0 0.68 0 0 Z " fill="#220A6F" transform="translate(518,587)"/>
<path d="M0 0 C1.08667969 0.11988281 2.17335938 0.23976563 3.29296875 0.36328125 C4.12441406 0.47027344 4.95585937 0.57726562 5.8125 0.6875 C2.28570901 3.03869399 0.78370515 2.90193452 -3.375 2.8125 C-4.46167969 2.79445313 -5.54835938 2.77640625 -6.66796875 2.7578125 C-7.91513672 2.72300781 -7.91513672 2.72300781 -9.1875 2.6875 C-6.51245717 -0.96369882 -4.27917944 -0.5061395 0 0 Z " fill="#2F1B6B" transform="translate(374.1875,515.3125)"/>
<path d="M0 0 C4.21422242 2.88341534 5.76075855 5.04303419 7 10 C6.01 10.495 6.01 10.495 5 11 C0 4.40909091 0 4.40909091 0 0 Z " fill="#2B1877" transform="translate(683,322)"/>
<path d="M0 0 C0 3 0 3 -2.3125 5.5625 C-5 8 -5 8 -8 10 C-8 8.68 -8 7.36 -8 6 C-6.25 4.296875 -6.25 4.296875 -4 2.75 C-3.2575 2.22921875 -2.515 1.7084375 -1.75 1.171875 C-1.1725 0.78515625 -0.595 0.3984375 0 0 Z " fill="#150B47" transform="translate(421,688)"/>
<path d="M0 0 C1.98 0.495 1.98 0.495 4 1 C4.12117187 1.63808594 4.24234375 2.27617187 4.3671875 2.93359375 C4.53476562 3.75988281 4.70234375 4.58617187 4.875 5.4375 C5.03742187 6.26121094 5.19984375 7.08492188 5.3671875 7.93359375 C5.68042969 8.95646484 5.68042969 8.95646484 6 10 C6.66 10.33 7.32 10.66 8 11 C7.01 11 6.02 11 5 11 C2 5.25 2 5.25 2 3 C1.01 2.67 0.02 2.34 -1 2 C-0.67 1.34 -0.34 0.68 0 0 Z " fill="#2B1676" transform="translate(722,391)"/>
<path d="M0 0 C0.33 0.66 0.66 1.32 1 2 C-0.43359375 4.8203125 -0.43359375 4.8203125 -2.4375 8.125 C-3.09621094 9.22070312 -3.75492187 10.31640625 -4.43359375 11.4453125 C-4.95050781 12.28835938 -5.46742188 13.13140625 -6 14 C-7 12 -7 12 -6.58203125 10.1953125 C-5.00151124 5.94315207 -3.58905693 2.97025401 0 0 Z " fill="#180F40" transform="translate(286,420)"/>
<path d="M0 0 C0 0.99 0 1.98 0 3 C-1.94348501 4.73223664 -3.94720004 6.39881603 -6 8 C-6.66 8.66 -7.32 9.32 -8 10 C-8 8.35 -8 6.7 -8 5 C-7.236875 4.731875 -6.47375 4.46375 -5.6875 4.1875 C-3.12619116 3.05575888 -1.80307062 2.08776599 0 0 Z " fill="#2A136D" transform="translate(711,646)"/>
<path d="M0 0 C2 2 4 4 6 6 C6.33 5.34 6.66 4.68 7 4 C7 4.99 7 5.98 7 7 C6.34 7 5.68 7 5 7 C4.67 7.66 4.34 8.32 4 9 C3.34 9 2.68 9 2 9 C1.34 6.03 0.68 3.06 0 0 Z " fill="#2D1978" transform="translate(697,347)"/>
<path d="M0 0 C1 3 1 3 -0.21484375 5.48046875 C-0.78332031 6.37378906 -1.35179687 7.26710938 -1.9375 8.1875 C-2.50339844 9.08855469 -3.06929688 9.98960937 -3.65234375 10.91796875 C-4.09707031 11.60503906 -4.54179687 12.29210937 -5 13 C-5.33 12.34 -5.66 11.68 -6 11 C-5.22265625 8.8359375 -5.22265625 8.8359375 -4.0625 6.375 C-3.68222656 5.55773437 -3.30195313 4.74046875 -2.91015625 3.8984375 C-2.60980469 3.27195312 -2.30945313 2.64546875 -2 2 C-1.34 2 -0.68 2 0 2 C0 1.34 0 0.68 0 0 Z " fill="#1A0E48" transform="translate(328,345)"/>
<path d="M0 0 C0.66 0.66 1.32 1.32 2 2 C1.4375 3.9375 1.4375 3.9375 0 6 C-3.625 6.75 -3.625 6.75 -7 7 C-4.82575883 4.49962266 -3.26954202 3.56371414 0 3 C0 2.01 0 1.02 0 0 Z " fill="#24146C" transform="translate(762,235)"/>
<path d="M0 0 C-1.65 1.65 -3.3 3.3 -5 5 C-5.99 4.67 -6.98 4.34 -8 4 C-8 3.34 -8 2.68 -8 2 C-7.34 2 -6.68 2 -6 2 C-6 1.34 -6 0.68 -6 0 C-3 -1 -3 -1 0 0 Z " fill="#2B1970" transform="translate(721,185)"/>
<path d="M0 0 C0.99 0.33 1.98 0.66 3 1 C0.17446016 5.23830976 -2.12180888 4.97715348 -7 6 C-4.74259377 3.66475218 -2.7194239 1.81294927 0 0 Z " fill="#170A57" transform="translate(728,496)"/>
<path d="M0 0 C0.99 0.495 0.99 0.495 2 1 C2 1.66 2 2.32 2 3 C2.66 3 3.32 3 4 3 C4.33 2.01 4.66 1.02 5 0 C4.4140625 6.15234375 4.4140625 6.15234375 4 8 C3.01 8.495 3.01 8.495 2 9 C1.34 6.03 0.68 3.06 0 0 Z " fill="#291775" transform="translate(747,435)"/>
<path d="M0 0 C1 1 2 2 3 3 C3.804375 3.6496875 3.804375 3.6496875 4.625 4.3125 C6.57157434 6.7014776 6.66586019 8.99274169 7 12 C3.66488612 9.0098979 1.78478881 6.10501426 0 2 C0 1.34 0 0.68 0 0 Z " fill="#170C48" transform="translate(416,391)"/>
<path d="M0 0 C0.66 0.33 1.32 0.66 2 1 C1.67 2.32 1.34 3.64 1 5 C-1.31 5 -3.62 5 -6 5 C-6 4.01 -6 3.02 -6 2 C-4.7934375 1.7834375 -4.7934375 1.7834375 -3.5625 1.5625 C-1.07896294 1.25864751 -1.07896294 1.25864751 0 0 Z " fill="#29136D" transform="translate(700,655)"/>
<path d="M0 0 C0.33 0 0.66 0 1 0 C1.33 3.63 1.66 7.26 2 11 C0.02 11.99 0.02 11.99 -2 13 C-2.33 12.01 -2.66 11.02 -3 10 C-2.34 10 -1.68 10 -1 10 C-0.67 6.7 -0.34 3.4 0 0 Z " fill="#2E1A77" transform="translate(644,277)"/>
<path d="M0 0 C3 1 3 1 4.3125 3.375 C4.6528125 4.674375 4.6528125 4.674375 5 6 C4.01 7.485 4.01 7.485 3 9 C0.70620251 5.55930376 0 4.27709699 0 0 Z " fill="#341973" transform="translate(549,249)"/>
<path d="M0 0 C8.57142857 -0.28571429 8.57142857 -0.28571429 12 2 C12 2.66 12 3.32 12 4 C11.01 4 10.02 4 9 4 C9 3.34 9 2.68 9 2 C6.03 1.67 3.06 1.34 0 1 C0 0.67 0 0.34 0 0 Z " fill="#271566" transform="translate(442,739)"/>
<path d="M0 0 C0.33 0.66 0.66 1.32 1 2 C-0.25 5.5625 -0.25 5.5625 -2 9 C-2.99 9.33 -3.98 9.66 -5 10 C-3.66511872 6.40608886 -2.03977277 3.24509304 0 0 Z " fill="#150B4C" transform="translate(722,627)"/>
<path d="M0 0 C2.97 0.495 2.97 0.495 6 1 C7 4 7 4 6.0625 6.1875 C5.5365625 7.0846875 5.5365625 7.0846875 5 8 C1.125 2.25 1.125 2.25 0 0 Z " fill="#120752" transform="translate(656,557)"/>
<path d="M0 0 C0.66 0.33 1.32 0.66 2 1 C1.67 1.99 1.34 2.98 1 4 C1.99 4 2.98 4 4 4 C3.34 5.32 2.68 6.64 2 8 C1.34 7.34 0.68 6.68 0 6 C-0.33 6 -0.66 6 -1 6 C-1.042721 4.33388095 -1.04063832 2.66617115 -1 1 C-0.67 0.67 -0.34 0.34 0 0 Z " fill="#2D1368" transform="translate(412,379)"/>
<path d="M0 0 C1.98 0.66 3.96 1.32 6 2 C6.33 3.65 6.66 5.3 7 7 C3.00003714 5.66667905 2.16217663 3.5042173 0 0 Z " fill="#2B0F69" transform="translate(368,307)"/>
<path d="M0 0 C2.31 0 4.62 0 7 0 C5.59240479 2.81519043 3.77416723 3.61291638 1 5 C0.01 4.67 -0.98 4.34 -2 4 C-1.34 2.68 -0.68 1.36 0 0 Z " fill="#2A187D" transform="translate(736,251)"/>
<path d="M0 0 C0 0.66 0 1.32 0 2 C1.32 2.33 2.64 2.66 4 3 C3.67 3.66 3.34 4.32 3 5 C0 4 -3 3 -6 2 C-2.25 0 -2.25 0 0 0 Z " fill="#392180" transform="translate(677,193)"/>
<path d="M0 0 C0.66 0.66 1.32 1.32 2 2 C0.03533587 3.06775224 -1.96855359 4.06553465 -4 5 C-4.66 4.67 -5.32 4.34 -6 4 C-4 1 -4 1 -2 0.1875 C-1.34 0.125625 -0.68 0.06375 0 0 Z " fill="#2A1674" transform="translate(725,500)"/>
<path d="M0 0 C0.66 0 1.32 0 2 0 C2.268125 0.969375 2.53625 1.93875 2.8125 2.9375 C3.204375 3.948125 3.59625 4.95875 4 6 C4.99 6.33 5.98 6.66 7 7 C7 7.99 7 8.98 7 10 C6.34 10 5.68 10 5 10 C3.35 6.7 1.7 3.4 0 0 Z " fill="#2B0F6E" transform="translate(438,428)"/>
<path d="M0 0 C2.31 1.98 4.62 3.96 7 6 C6.01 7.485 6.01 7.485 5 9 C4.54625 8.175 4.0925 7.35 3.625 6.5 C2.820625 5.2625 2.820625 5.2625 2 4 C1.34 4 0.68 4 0 4 C0 2.68 0 1.36 0 0 Z " fill="#271072" transform="translate(477,309)"/>
<path d="M0 0 C4.875 1.75 4.875 1.75 6 4 C4.68 3.67 3.36 3.34 2 3 C2 3.66 2 4.32 2 5 C1.34 5 0.68 5 0 5 C-0.33 4.01 -0.66 3.02 -1 2 C-0.67 1.34 -0.34 0.68 0 0 Z " fill="#190A5A" transform="translate(601,498)"/>
<path d="M0 0 C3 2 3 2 3.6875 4.625 C3.790625 5.40875 3.89375 6.1925 4 7 C3.01 7.495 3.01 7.495 2 8 C0.4375 5.6875 0.4375 5.6875 -1 3 C-0.67 2.01 -0.34 1.02 0 0 Z " fill="#2A1375" transform="translate(710,367)"/>
<path d="M0 0 C0.6875 1.8125 0.6875 1.8125 1 4 C-0.3125 5.75 -0.3125 5.75 -2 7 C-2.66 7 -3.32 7 -4 7 C-4 6.01 -4 5.02 -4 4 C-3.01 4 -2.02 4 -1 4 C-0.67 2.68 -0.34 1.36 0 0 Z " fill="#2F1D72" transform="translate(656,304)"/>
<path d="M0 0 C1.64328732 3.28657463 2.62413022 5.4292371 3 9 C2.34 9.66 1.68 10.32 1 11 C0.67 7.37 0.34 3.74 0 0 Z " fill="#2B1A73" transform="translate(730,260)"/>
</svg>
